# xmcd
#
# Track frame offsets: 
#        150
#        14966
#        30556
#        43791
#        59379
#        76188
#        93184
#        109694
#        126544
#        140291
#        161171
#        175308
#
# Disc length: 2594 seconds
#
# Revision: 0
# Processed by: cddbd v1.5.2PL0 Copyright (c) Steve Scherf et al.
# Submitted via: ExactAudioCopy v1.0b3
#
DISCID=a20a200c
DTITLE=Mikelle - Right On Time
DYEAR=2010
DGENRE=Country
TTITLE0=I Can't Give You That
TTITLE1=Girl In A Bar
TTITLE2=But Why
TTITLE3=I Still Wonder
TTITLE4=Better Stay Lonely Tonight
TTITLE5=Don't Take It With You
TTITLE6=Chip On Her Shoulder
TTITLE7=A Good Place To Start
TTITLE8=More
TTITLE9=Right On Time
TTITLE10=Don't You Know
TTITLE11=Will You Still Love Me Tomorrow
EXTD=
EXTT0=
EXTT1=
EXTT2=
EXTT3=
EXTT4=
EXTT5=
EXTT6=
EXTT7=
EXTT8=
EXTT9=
EXTT10=
EXTT11=
PLAYORDER=
